<svg id="圖層_1" data-name="圖層 1" xmlns="http://www.w3.org/2000/svg" viewBox="0 0 472.48 479.24"><defs><style>.cls-1{fill:#e50012;}.cls-2{fill:#231815;}</style></defs><title>未命名-1</title><path class="cls-1" d="M627.55,232A86.53,86.53,0,1,1,541,145.44,86.53,86.53,0,0,1,627.55,232Z" transform="translate(-446.66 -144.76)"/><path class="cls-1" d="M851.78,144.76H682.57c-6.72,0-8.25,4.72-8.25,4.72L538.22,444.16c-7.29,12.47-19.73,14.92-25.23,15.38H458.11c-4.9,0-4.33,4.37-4.33,4.37v24.58s0,4.87,4.6,4.87h23.08v.06H685.68s11.54.11,16.18-9.58c4.8-10,134.43-291,154.11-333.67C856,150.17,858.91,144.76,851.78,144.76Z" transform="translate(-446.66 -144.76)"/><path class="cls-1" d="M916,413.17v-.07H851.11a19.61,19.61,0,1,1,0-16.84H916v-.1s3.16-.84,3.16-3.68h0a86.58,86.58,0,1,0,0,24.35h0C919.12,414,916,413.17,916,413.17Z" transform="translate(-446.66 -144.76)"/><path class="cls-2" d="M481.06,564.75l9.46,2c.89.19,1.33.52,1.33,1a2,2,0,0,1-.33,1.17c-1.41.26-2.89,1.28-4.45,3.08a82.59,82.59,0,0,1-14,11,69.23,69.23,0,0,1-7.8,4h63.89a50.27,50.27,0,0,1-6.34-3.67,82.38,82.38,0,0,1-17.36-14.79l6.89-4.17a68.28,68.28,0,0,0,18.26,13q7.13,3.69,20,7.35l-9.58,7.15q-3.22-1.06-6.12-2.32v22.72h12.58v7.92H449.34v-7.92h12.57V588.53c-2.52,1-5.12,2-7.79,3l-7.46-6.39a86.48,86.48,0,0,0,20-8.49A61.32,61.32,0,0,0,481.06,564.75Zm40-29.09,7.79,3.57c1.19.46,1.78.91,1.78,1.36,0,.7-.7,1.32-2.11,1.83L515.9,554.9h25.6v7.92H455.34V554.9h48.54Zm-44.3.38a155.73,155.73,0,0,1,13.46,12.09L482,552.29q-6.46-6.18-14.36-12.48Zm-4.79,76.27h10.8v-17.4h-10.8Zm20.37,0h11.35v-17.4H492.3Zm20.93,0h11.69v-17.4H513.23Z" transform="translate(-446.66 -144.76)"/><path class="cls-2" d="M571.34,555.66l9.23,2.33a209.21,209.21,0,0,1-7.46,29.38L564,585.53A188.43,188.43,0,0,0,571.34,555.66ZM584,536.82l9.69.59c1.63.05,2.45.35,2.45.86,0,1-.86,1.87-2.56,2.7v27.17c0,10-.94,18.48-2.79,25.52a49.49,49.49,0,0,1-8.12,16.71,61.16,61.16,0,0,1-10,11l-7.79-6.09a55.6,55.6,0,0,0,9-9A42.58,42.58,0,0,0,581.24,593q3.22-10.26,3.23-24.84V543.2A55.06,55.06,0,0,0,584,536.82Zm21.26,19.23a221.42,221.42,0,0,1,7,32.48l-8.68,1.54a271,271,0,0,0-7-32.46Zm9.13-17.39,9.13.67c1.78.14,2.67.55,2.67,1.26,0,.45-.59,1.2-1.78,2.23v76.64h-10Zm20.93,17.39a171.49,171.49,0,0,1,9.12,32.48l-8.68,1.54a227.25,227.25,0,0,0-9.13-32.46ZM647,536.43l9.13.67c1.78.07,2.67.47,2.67,1.17,0,.52-.59,1.29-1.78,2.32v81.58H647Z" transform="translate(-446.66 -144.76)"/><path class="cls-2" d="M708.25,534.88l7.56,2.42c1.34.19,2,.65,2,1.36,0,.51-.45.9-1.34,1.15-1.19,1.74-2.33,3.39-3.45,4.93h20.82l3.11-9.08,7.68,1.75c1,.17,1.45.48,1.45.86s-.44,1-1.33,1.54l-2,4.93h32.06v7.15h-33.5V558h30.05v6.76H741.31v5.6h30.05v6.87H741.31v5.22h34.84v7.73H741.31v5.51H782.6v7.16H748a104.51,104.51,0,0,0,15.25,6.47,136.39,136.39,0,0,0,20.71,4.55l-7.79,7.91a154.08,154.08,0,0,1-21.49-7.15,139.2,139.2,0,0,1-13.35-6.75V624h-10V608a98.18,98.18,0,0,1-15.8,7.54A150.66,150.66,0,0,1,693,621.39l-8.24-7.15a220,220,0,0,0,27.61-6.09,86.67,86.67,0,0,0,13.68-5.31h-40v-7.16h45.19v-5.51h-33V560.05q-4.35,3.48-9.58,7l-7.34-5.23q10.91-7.06,16.58-13A69.11,69.11,0,0,0,708.25,534.88Zm23,23.11v-6.1H707.8V558Zm0,12.36v-5.6H707.8v5.6Zm0,12.09v-5.22H707.8v5.22Z" transform="translate(-446.66 -144.76)"/><path class="cls-2" d="M803,538.66h92.61v84.18H886v-2.61H812.55v2.61H803Zm9.58,74.81h39.17l-3.11-6.87h6.12c2.16,0,3.3-.74,3.45-2.22v-3H837.37a62.25,62.25,0,0,1,7.79,5.6l-5.68,4.56a54.93,54.93,0,0,0-10-7.54l3.34-2.62H816.44V595.3h41.74v-5q-14.35,1.05-35.17,2.42a2.39,2.39,0,0,1-1.78,1.15c-.52,0-.82-.34-.89-1.06l-1.67-6.48q13.13-.39,26.05-1v-4H823.79v-22.7h20.93v-2.62H817.33v-6h27.39v-3.48l8.12.58c1.56.07,2.34.38,2.34,1,0,.38-.6,1-1.78,1.93h27.82v6H853.4v2.62h20.92v21.84a92.67,92.67,0,0,1,9.13,10l-6.57,3.78c-1.26-1.8-2.52-3.52-3.78-5.13q-2.9.3-6.23.48v5.71h15.69v6.08H866.87v4.16c0,3-.94,5.12-2.79,6.47a8,8,0,0,1-3.23,1.46H886v-68H812.55Zm20.37-45.73h11.8V564h-11.8Zm11.8,8.32V572.3h-11.8v3.76ZM853.4,564v3.76h11.79V564Zm11.79,12.08V572.3H853.4v3.76Zm3.34,8a40.31,40.31,0,0,0-3-2.71H853.4v3.49Z" transform="translate(-446.66 -144.76)"/></svg>